<?xml version="1.0" standalone="no"?><!DOCTYPE svg PUBLIC "-//W3C//DTD SVG 1.1//EN" "http://www.w3.org/Graphics/SVG/1.1/DTD/svg11.dtd"><svg t="1726240067095" class="icon" viewBox="0 0 1024 1024" version="1.1" xmlns="http://www.w3.org/2000/svg" p-id="2346" xmlns:xlink="http://www.w3.org/1999/xlink" width="200" height="200"><path d="M513.5 513.5m-510.5 0a510.5 510.5 0 1 0 1021 0 510.5 510.5 0 1 0-1021 0Z" fill="#00D194" p-id="2347"></path><path d="M836.776 400.516L485.338 747.68a56.534 56.534 0 0 1-15.583 11.299c-22.075 16.154-52.926 14.094-72.745-6.206l-150.917-154.61c-22.075-22.608-22.075-59.252 0-81.851 22.056-22.607 57.829-22.607 79.894 0l113.307 116.072 317.587-313.723c22.065-22.603 57.839-22.603 79.895 0 22.066 22.603 22.066 59.252 0 81.855z" fill="#FFFFFF" p-id="2348"></path></svg>